<?xml version="1.0" encoding="UTF-8" standalone="no"?>
<svg width="78px" height="150px" viewBox="0 0 78 150" version="1.1" xmlns="http://www.w3.org/2000/svg" xmlns:xlink="http://www.w3.org/1999/xlink" xmlns:sketch="http://www.bohemiancoding.com/sketch/ns">
    <!-- Generator: Sketch 3.2.2 (9983) - http://www.bohemiancoding.com/sketch -->
    <title>Group 2</title>
    <desc>Created with Sketch.</desc>
    <defs></defs>
    <g id="Page-1" stroke="none" stroke-width="1" fill="none" fill-rule="evenodd" sketch:type="MSPage">
        <g id="Artboard-2" sketch:type="MSArtboardGroup" transform="translate(-269.000000, -157.000000)" fill="#FBFBFB">
            <g id="Group-2" sketch:type="MSLayerGroup" transform="translate(269.000000, 157.772846)">
                <path d="M77.546809,132.731033 L73.3162179,125.164549 L76.4487649,125.164549 C76.9206668,125.164549 77.3595172,124.514734 77.603731,124.112731 C77.8479448,123.707055 77.8626343,123.24264 77.642291,122.825951 L63.2226593,95.482345 L70.7253481,95.482345 L70.7418739,95.482345 C71.4873687,95.482345 72.0914765,94.6379533 72.0914765,93.8945215 C72.0914765,93.6099982 72.0051754,93.6375327 71.8564437,93.4209279 L67.5450601,84.6869807 L70.7235119,84.6869807 L70.7400377,84.6869807 C71.4855325,84.6869807 72.0896403,83.671875 72.0896403,82.9284432 C72.0896403,82.6237279 71.9886496,82.4420001 71.8197198,82.2162171 L56.689481,54.105316 L60.0937847,54.105316 L60.1103104,54.105316 C60.8558052,54.105316 61.4599131,53.1948415 61.4599131,52.4495741 C61.4599131,52.1485301 61.3607586,52.1393519 61.1936649,51.9135689 L56.9997978,44.2112481 L60.0937847,44.2112481 L60.1103104,44.2112481 C60.8558052,44.2112481 61.4599131,43.1851286 61.4599131,42.4398611 C61.4599131,42.1424884 61.3625948,41.6523741 61.1973373,41.4284267 L39.9746067,0.826035359 C39.7414101,0.379976265 39.2805254,0.13767256 38.7774082,0.13767256 L38.7737358,0.13767256 C38.2706187,0.13767256 37.8078978,0.279016388 37.5783735,0.726911116 L16.5870034,41.4743176 C16.3721687,41.8928422 16.3905306,42.7776178 16.6347444,43.1796217 C16.8789582,43.5797899 17.3159724,44.2112481 17.7860381,44.2112481 L20.8120858,44.2112481 L16.5870034,51.9447747 C16.3703325,52.3632992 16.3886944,52.9598803 16.6329082,53.3618842 C16.877122,53.7638881 17.3159724,54.105316 17.7842019,54.105316 L21.0287567,54.105316 L6.03623246,82.1941895 C5.81405299,82.6127141 5.83057873,83.3726666 6.07479254,83.7765061 C6.31900634,84.1803457 6.75785672,84.685145 7.22975858,84.685145 L10.3421075,84.685145 L6.00868955,93.4888463 C5.81221679,93.9073709 5.84343209,94.4305266 6.09131828,94.8196811 C6.33920448,95.2088355 6.76887388,95.4805094 7.23159478,95.4805094 L14.5525004,95.4805094 L0.355048134,122.631374 C0.138377239,123.049898 0.154902985,123.830043 0.399116791,124.233882 C0.643330597,124.635886 1.08218097,125.162713 1.55224664,125.162713 L4.61685448,125.162713 L0.356884328,132.912761 C0.138377239,133.331285 0.154902985,133.918688 0.397280597,134.322528 C0.643330597,134.726367 1.08034478,135.056781 1.55224664,135.056781 L29.9710216,135.056781 L27.8557261,146.340424 C27.7841146,146.735086 27.8906138,147.449147 28.147681,147.755698 C28.4047481,148.064085 28.7830041,148.548692 29.1832944,148.548692 L46.0267022,148.548692 L46.0450642,148.548692 C46.790559,148.548692 47.3928306,147.495038 47.3928306,146.751606 C47.3928306,146.590071 47.3652877,146.496453 47.3157104,146.355109 L45.2371388,135.058617 L76.4506011,135.058617 L76.4689631,135.058617 C77.2144578,135.058617 77.8167295,134.370254 77.8167295,133.624987 C77.8167295,133.320271 77.717575,132.956816 77.546809,132.731033 L77.546809,132.731033 Z M44.4053429,145.85031 L30.7991451,145.85031 L32.7124593,135.056781 L42.4901925,135.056781 L44.4053429,145.85031 L44.4053429,145.85031 Z M3.77955,132.358399 L8.03952015,123.921825 C8.25802724,123.5033 8.24150149,123.260996 7.99912388,122.855321 C7.75307388,122.451482 7.3160597,122.462495 6.84415784,122.462495 L3.77220522,122.462495 L17.9696575,94.6728304 C18.1863284,94.2524701 18.1698026,93.7935616 17.9255888,93.3897221 C17.681375,92.9877182 17.2425246,92.7802916 16.772459,92.7802916 L9.35790746,92.7802916 L13.6913254,83.3304471 C13.8877981,82.9100868 13.8565828,82.713674 13.6086966,82.3226839 C13.3608104,81.9335295 12.931141,81.9867629 12.4702563,81.9867629 L9.4699153,81.9867629 L24.4624396,53.1819921 C24.684619,52.7634675 24.6699295,52.3614636 24.4238795,51.9576241 C24.1796657,51.551949 23.7408153,51.4050982 23.2689134,51.4050982 L20.0041604,51.4050982 L24.2292429,42.9446605 C24.4459138,42.5261359 24.4275519,42.294846 24.1833381,41.8910065 C23.9391243,41.4890026 23.5002739,41.5110303 23.0302082,41.5110303 L19.9968157,41.5110303 L38.7884254,4.97823977 L57.8701537,41.5128659 L54.7706582,41.5128659 C54.2987563,41.5128659 53.859906,41.3384807 53.6156922,41.7423202 C53.3714784,42.1498309 53.3549526,42.746412 53.5771321,43.163101 L57.862809,51.4050982 L54.4401433,51.4050982 C53.964569,51.4050982 53.5257187,51.3500292 53.2815049,51.7538687 C53.0391272,52.1613795 53.0262739,52.9250033 53.2502896,53.3416922 L68.4741743,81.9849272 L65.4077302,81.9849272 C64.9450093,81.9849272 64.5153399,81.8123776 64.2674537,82.2052033 C64.0195675,82.5961934 63.9920246,83.1211848 64.1903336,83.5397093 L68.5880183,92.7784559 L60.9898474,92.7784559 C60.5179455,92.7784559 60.0790951,92.7876341 59.8348813,93.1914736 C59.5906675,93.5971488 59.575978,94.3791289 59.7963213,94.7976535 L74.2141168,122.46066 L71.074225,122.46066 C70.6004869,122.46066 70.1616366,122.310138 69.9174228,122.715813 C69.673209,123.121488 69.6603556,123.710727 69.8806989,124.129251 L74.2030996,132.356563 L3.77955,132.356563 L3.77955,132.358399 Z" id="Shape" sketch:type="MSShapeGroup"></path>
                <path d="M54.3061011,75.5161526 L48.8452601,81.2910575 L43.384419,75.5161526 C42.8721209,74.9746405 42.0182907,74.9507772 41.4766134,75.4629192 C40.9349362,75.9750611 40.9110657,76.828631 41.4233638,77.370143 L44.2713007,80.3824186 C44.1335862,80.4503371 43.999544,80.5347763 43.8857,80.6540925 L40.8137474,83.9013293 L37.743631,80.6540925 C37.2313328,80.1107448 36.3775026,80.0868815 35.8358254,80.6008591 C35.2941481,81.1111654 35.2702776,81.9647353 35.7825757,82.508083 L39.8332198,86.792453 C40.0884507,87.0604556 40.4428362,87.2146489 40.8137474,87.2146489 C41.1846586,87.2146489 41.5408802,87.0604556 41.794275,86.792453 L45.8467552,82.508083 C45.9257116,82.4254794 45.9642716,82.3245195 46.0193575,82.2309022 L47.8647325,84.1821813 C48.1199634,84.4501839 48.4743489,84.6025415 48.8452601,84.6025415 C49.2143351,84.6025415 49.5705567,84.4501839 49.8257877,84.1821813 L56.2653201,77.370143 C56.7776183,76.828631 56.755584,75.9750611 56.2120705,75.4629192 C55.6703933,74.9507772 54.8165631,74.9728048 54.3061011,75.5161526 L54.3061011,75.5161526 Z" id="Shape" sketch:type="MSShapeGroup"></path>
                <path d="M22.1653608,116.704111 L19.886644,119.112463 L17.6079272,116.704111 C17.0956291,116.160764 16.2417989,116.1369 15.7001216,116.650878 C15.1584444,117.161184 15.1345739,118.01659 15.646872,118.558102 L18.9042802,122.003587 C19.1595112,122.273425 19.5138966,122.425783 19.8848078,122.425783 C20.255719,122.425783 20.6101045,122.273425 20.8653354,122.003587 L24.1245799,118.558102 C24.636878,118.01659 24.6130075,117.16302 24.0713302,116.650878 C23.5314892,116.138736 22.6758228,116.160764 22.1653608,116.704111 L22.1653608,116.704111 Z" id="Shape" sketch:type="MSShapeGroup"></path>
                <path d="M37.071584,33.8766279 L39.4806705,31.3250965 C39.9929687,30.7835844 39.9709343,29.9300145 39.4274209,29.4178726 C38.8857437,28.9075663 38.0319134,28.9295939 37.5196153,29.471106 L36.0892201,30.9855041 L34.658825,29.471106 C34.1465269,28.9295939 33.2926966,28.9057307 32.7510194,29.4178726 C32.2093422,29.9300145 32.1854716,30.7835844 32.6977698,31.3250965 L35.1086925,33.8766279 C35.3639235,34.1464661 35.718309,34.2988238 36.0892201,34.2988238 C36.4601313,34.2988238 36.8181892,34.1483018 37.071584,33.8766279 L37.071584,33.8766279 Z" id="Shape" sketch:type="MSShapeGroup"></path>
            </g>
        </g>
    </g>
</svg>